<svg width="16" height="17" fill="none" xmlns="http://www.w3.org/2000/svg"><g clip-path="url(#clip0_67_3944)"><path d="M4.666 9.834a4 4 0 00-2 4 4 4 0 004-2" fill="url(#paint0_linear_67_3944)"/><path d="M2.667 9.166a5.334 5.334 0 014.667 4.667 4 4 0 002-3.333 6 6 0 004-5.333 2 2 0 00-2-2 6 6 0 00-5.334 4 4 4 0 00-3.333 2z" fill="url(#paint1_linear_67_3944)" stroke="url(#paint2_linear_67_3944)" stroke-linecap="round" stroke-linejoin="round"/><path d="M9.333 6.5a.667.667 0 101.333 0 .667.667 0 00-1.333 0z" stroke="#0D111C" stroke-width="1.5" stroke-linecap="round" stroke-linejoin="round"/></g><defs><linearGradient id="paint0_linear_67_3944" x1="3.588" y1="9.834" x2="6.961" y2="9.914" gradientUnits="userSpaceOnUse"><stop stop-color="#487BFF"/><stop offset="1" stop-color="#4627FF"/></linearGradient><linearGradient id="paint1_linear_67_3944" x1="5.194" y1="3.167" x2="14.112" y2="3.381" gradientUnits="userSpaceOnUse"><stop stop-color="#487BFF"/><stop offset="1" stop-color="#4627FF"/></linearGradient><linearGradient id="paint2_linear_67_3944" x1="5.194" y1="3.167" x2="14.112" y2="3.381" gradientUnits="userSpaceOnUse"><stop stop-color="#487BFF"/><stop offset="1" stop-color="#4627FF"/></linearGradient><clipPath id="clip0_67_3944"><path fill="#fff" transform="translate(0 .5)" d="M0 0h16v16H0z"/></clipPath></defs></svg>