<svg width="312" height="312" fill="none" xmlns="http://www.w3.org/2000/svg"><g filter="url(#filter0_i_2_1018)"><circle cx="156" cy="156" r="156" fill="url(#paint0_radial_2_1018)"/></g><g filter="url(#filter1_i_2_1018)"><circle cx="156" cy="156" r="138" fill="url(#paint1_linear_2_1018)"/></g><g clip-path="url(#clip0_2_1018)"><path d="M235.857 186.402v-.099c-.012-.148-.012-.32-.031-.48 0-.148-.012-.259-.012-.388-.031-.173-.031-.363-.043-.505-.013-.234-.031-.48-.043-.708-.044-.216-.056-.462-.074-.678-.043-.246-.056-.492-.087-.726-.055-.45-.129-.9-.19-1.349a38.923 38.923 0 00-.345-1.897c-.099-.548-.234-1.103-.364-1.638a8.041 8.041 0 00-.203-.813c-.129-.548-.302-1.103-.462-1.62a5.322 5.322 0 00-.191-.61 30.307 30.307 0 00-.406-1.201h-.013c-.073-.203-.129-.388-.203-.591-.074-.191-.141-.388-.215-.579-.056-.148-.117-.277-.173-.419-.074-.172-.129-.344-.203-.523-.117-.277-.246-.536-.345-.813-.031-.012-.031-.031-.031-.043-.117-.246-.215-.48-.32-.708-.031-.031-.031-.074-.043-.087 0-.012 0-.012-.012-.03-.087-.191-.191-.388-.29-.592 0-.03-.031-.055-.043-.086-.031-.086-.074-.148-.098-.215-.099-.204-.191-.376-.29-.567a.082.082 0 00-.031-.055c-.234-.45-.48-.9-.726-1.349-.031-.043-.044-.099-.087-.148l-.388-.696a.288.288 0 00-.055-.098c-3.708-6.196-10.279-13.377-17.361-15.723l-.074.172c.246-1.564.375-3.159.388-4.748a31.987 31.987 0 00-4.213-16.117l-15.292-26.963c-.16-.289-.332-.591-.505-.868-.03-.044-.055-.087-.055-.117-.031-.013-.043-.056-.056-.087-.086-.16-.19-.301-.289-.449 0-.043-.043-.074-.055-.117-.117-.173-.216-.345-.345-.524-.087-.16-.191-.32-.29-.48-.086-.099-.16-.216-.234-.32-.16-.216-.289-.438-.449-.653-.087-.117-.16-.234-.247-.345-.086-.117-.191-.246-.258-.363-.031-.013-.043-.056-.074-.087-.087-.117-.173-.234-.259-.345-.129-.19-.289-.375-.419-.566-.215-.259-.449-.548-.665-.813-.246-.29-.493-.61-.751-.88-.388-.45-.782-.881-1.189-1.306-.376-.407-.77-.813-1.188-1.201 0-.013-.013-.013-.031-.031a24.757 24.757 0 00-1.244-1.158c0-.03-.013-.03-.031-.03-.216-.204-.419-.376-.634-.58-.204-.172-.419-.344-.622-.523l-.056-.043c-.055-.056-.142-.117-.215-.173-.278-.203-.536-.437-.813-.653a4.588 4.588 0 01-.438-.332l-.043-.03c-.16-.13-.32-.247-.48-.364-.216-.148-.419-.29-.634-.45l-.044-.03c-.055-.044-.098-.087-.16-.118l-.043-.043a1.726 1.726 0 01-.16-.098 15.431 15.431 0 00-.523-.345l-.524-.345c-.098-.074-.215-.13-.302-.19h-.012a6.193 6.193 0 00-.548-.346c-.191-.117-.376-.246-.579-.345l-.099-.074c-.406-.246-.813-.462-1.213-.695-.406-.216-.813-.42-1.219-.622-.216-.118-.437-.216-.635-.32a32.829 32.829 0 00-1.262-.592 16.774 16.774 0 01-.653-.277c-.203-.086-.419-.173-.622-.277a4.785 4.785 0 01-.653-.247c-.191-.055-.363-.129-.536-.19-.073-.044-.172-.056-.234-.1-.191-.054-.363-.128-.548-.19-.462-.16-.923-.32-1.404-.462a3.7 3.7 0 00-.579-.172c-.258-.087-.548-.16-.825-.247l-.086-.012c-.203-.055-.419-.117-.622-.172-.013-.013-.031 0-.031-.013-.173-.043-.32-.074-.48-.117-.45-.098-.912-.203-1.362-.302-.215-.043-.437-.073-.665-.129-.055-.012-.129-.03-.203-.03-.406-.087-.813-.16-1.219-.216-.234-.043-.462-.074-.696-.117l-1.404-.173a11.68 11.68 0 01-.709-.055c-.228-.025-.48-.043-.708-.056-.234-.012-.449-.03-.665-.043-.031-.012-.055-.012-.086-.012-.117 0-.247-.012-.364-.012-.301-.013-.591-.013-.88-.031-.29-.012-.579-.012-.869-.012h-1.084c-.344 0-.708.012-1.071.03-.727.043-1.46.087-2.187.16-.246.013-.48.044-.726.074-.247.031-.493.044-.739.087a39.93 39.93 0 00-1.417.203h-.031a35.83 35.83 0 00-1.779.332c-.579.13-1.171.26-1.768.388a6.65 6.65 0 01-.696.204 9.735 9.735 0 00-.696.19c-.191.056-.388.118-.591.173-.277.086-.523.16-.782.246-.191.056-.364.13-.536.173-.129.055-.505.172-.523.203-.29.086-.579.191-.856.29a13.5 13.5 0 00-1.029.406c-.216.098-.437.19-.634.277a9.439 9.439 0 00-.635.277c-.215.099-.437.191-.652.29-.161.074-.321.16-.505.246-.087.043-.161.074-.235.13a2.346 2.346 0 00-.505.233c-.277.148-.566.302-.856.45-.332.172-.652.363-.966.536 0 0-.524.277-.955.548-.246.16-.505.302-.751.462-.031.012-.056.043-.087.055-.129.087-.277.173-.406.277-.117.056-.216.13-.32.204-.142.098-.29.19-.438.29-.191.116-.375.258-.579.406-.19.117-.375.258-.548.388a5.444 5.444 0 00-.591.437c-.363.277-.727.548-1.072.837-.505.388-.997.813-1.478 1.232-.437.376-.825.752-1.231 1.127-.204.203-.407.407-.61.591-.406.407-.782.795-1.17 1.214-.148.147-.29.32-.419.462a53.8 53.8 0 01-.856.954c-.117.16-.259.32-.376.48-.147.148-.277.32-.406.48-.099.13-.191.235-.277.364-.117.148-.247.29-.345.438-.191.246-.364.48-.536.708l-.012.043c-.16.203-.321.419-.462.622l-.056.098-.375.549c-.031.03-.043.073-.056.098a1.244 1.244 0 00-.148.191l-.375.579a30.18 30.18 0 00-.813 1.318l-.086.117.012.012-.407.696-.073.086c-3.523 6.313-6.442 15.594-4.94 22.904h.173a29.986 29.986 0 00-4.299 2.014c-4.761 2.692-8.887 6.645-11.874 11.702l-15.68 26.728c-.16.29-.332.579-.492.881l-.074.098a.393.393 0 01-.043.087c-.099.16-.16.301-.247.48l-.074.117c-.098.172-.19.376-.29.548-.085.173-.16.345-.246.505a2.267 2.267 0 00-.172.345c-.117.246-.234.48-.345.708a3.38 3.38 0 01-.16.388c-.074.13-.13.277-.19.407a1.964 1.964 0 01-.044.098c-.055.148-.117.277-.172.419-.099.203-.173.419-.278.653-.129.32-.246.634-.363.954-.142.376-.277.739-.406 1.115a34.068 34.068 0 00-.536 1.651c-.16.548-.29 1.084-.45 1.638 0 .012 0 .031-.012.043-.148.567-.259 1.102-.376 1.651v.055a7.86 7.86 0 00-.172.825c-.056.277-.099.536-.148.825 0 .013-.012.031-.012.056-.013.086-.031.172-.043.277-.044.333-.099.684-.148 1.029-.043.172-.056.363-.074.535-.013.013-.013.043-.013.056a9.4 9.4 0 00-.073.609c-.013.247-.056.505-.074.752 0 .012 0 .043-.013.055v.203c-.012.013 0 .031-.012.056a.429.429 0 01-.03.172c0 .216-.032.419-.032.635-.012.203-.03.406-.03.622-.013.129-.013.246-.031.363v.012c-.012.204-.012.438-.012.653 0 .216-.013.45-.013.665 0 .043 0 .099-.012.148 0 .462 0 .924.012 1.374.013.461.043.911.056 1.373.012.234.03.48.043.708.043.462.086.942.13 1.392.03.234.055.462.073.696.03.234.055.45.099.696.03.215.055.449.098.683.03.191.056.364.086.536.013.099.031.191.043.277.044.191.074.388.118.567.073.48.172.973.289 1.447.043.191.086.388.13.579.073.29.147.567.215.838l.012.098c.056.191.099.407.173.61v.055c.055.148.098.29.147.45.13.462.278.899.407 1.33.074.204.142.419.234.635.012.074.043.129.055.191.13.406.277.782.45 1.17.074.215.16.437.246.653.173.449.345.88.548 1.305.087.234.191.45.29.653.086.216.19.437.302.653.098.203.19.388.289.591.012.012.03.043.043.074.043.086.099.191.148.289 0 .013.012.031.012.031.13.277.277.524.42.782.147.259.276.505.406.752l.012.03c.19.302.363.622.548.912.172.302.363.622.548.911.407.622.813 1.232 1.244 1.823.13.204.277.407.419.61.142.191.29.376.431.579.29.376.591.751.88 1.127.013 0 .013.012.031.012.376.481.77.943 1.17 1.374.389.462.814.899 1.232 1.33l.505.505c.173.172.345.345.524.505.148.16.29.289.462.437.172.191.375.364.579.548.141.13.277.247.43.376.1.099.216.191.333.29 0 .012.013.03.031.012.013.031.043.043.056.055.234.204.462.407.708.579.012.043.055.074.098.086.247.216.493.407.74.61.19.148.375.277.547.419.191.129.376.277.567.419.191.129.376.277.567.388.16.117.302.234.462.332.073.056.141.099.234.148l.462.302c.277.172.535.363.813.523.32.204.621.376.954.579.32.191.634.376.955.548.258.148.523.29.782.419l.086.043c.13.074.29.148.437.216.099.074.216.117.345.172.142.074.302.16.462.234.203.117.407.204.622.29.203.098.419.203.634.302.216.086.45.19.666.277.418.191.837.363 1.262.523.591.234 1.22.462 1.811.653.536.191 1.071.345 1.595.505.277.074.548.16.825.234.536.148 1.084.277 1.638.406l.61.13c.419.086.825.172 1.232.258h.012c.191.031.407.074.61.099.203.043.419.074.622.099.148.012.289.043.449.055.191.031.364.055.567.086.277.031.579.074.868.099.013 0 1.361.074 1.595.129a.437.437 0 00.117.012c.087 0 .161.013.234.013.216.012.419.03.635.03.012.013.031.013.055.013.524.012 1.029.043 1.534.043h1.084c7.193-.099 16.708-2.199 22.3-7.169l-.098-.148a35.194 35.194 0 003.892 2.71 32.1 32.1 0 0016.055 4.416l30.997.234h1.244c.172 0 .345-.031.523-.031.044 0 .087 0 .13.013.215-.031.419-.031.634-.031.203-.013.376-.031.548-.043.142 0 .277-.013.407-.031.258-.031.523-.031.782-.056.129-.012.277-.03.419-.043.147-.012.301-.03.449-.043.031-.012.056-.012.099-.012.16-.012.289-.043.449-.043.216-.043.462-.074.696-.099.345-.055.678-.098 1.016-.172.388-.056.795-.13 1.171-.203.566-.117 1.145-.234 1.693-.376.567-.117 1.084-.277 1.638-.419.013 0 .031 0 .056-.012.536-.148 1.084-.32 1.62-.493.012 0 .03-.012.03-.012.277-.086.548-.173.826-.277.246-.087.505-.191.769-.29.031 0 .044 0 .074-.012.074-.012.16-.056.234-.086.345-.148.665-.259.986-.388a4.59 4.59 0 01.505-.204c.012 0 .043-.03.043-.03.191-.074.376-.148.566-.247.234-.098.462-.203.696-.302.031 0 .031-.012.056-.012a.793.793 0 01.172-.098c.031 0 .043-.013.056-.031a.603.603 0 00.16-.074c.203-.086.375-.191.579-.277.172-.099.375-.191.548-.277.117-.043.215-.117.32-.173h.012c.191-.098.376-.203.579-.32.191-.099.376-.203.579-.302.043-.043.086-.043.117-.074.407-.234.813-.48 1.213-.708.376-.234.752-.48 1.146-.727.203-.129.406-.277.591-.406.376-.259.77-.524 1.127-.795.203-.147.388-.289.567-.418.191-.148.376-.278.548-.419.191-.13.376-.29.548-.437.148-.117.29-.234.419-.364a.905.905 0 00.215-.16c.161-.117.302-.246.45-.376.363-.32.727-.634 1.084-.973.16-.129.302-.258.45-.418.203-.191.406-.407.622-.592l.055-.074c.16-.147.302-.301.462-.449l.031-.043c.098-.117.215-.216.32-.333.332-.345.653-.683.967-1.028.129-.173.289-.345.437-.493.043-.055.086-.117.129-.173.278-.301.536-.622.795-.954.148-.173.289-.363.437-.548.29-.364.579-.739.856-1.127.142-.203.277-.388.419-.579.129-.191.259-.388.388-.591.142-.173.259-.345.376-.536l.246-.376c.172-.259.32-.505.462-.751.172-.247.302-.493.449-.739.013-.013.013-.013.013-.031.191-.302.363-.61.536-.912.172-.32.344-.634.505-.942.332-.653.652-1.318.973-1.983.098-.234.258-.61.363-.837.074-.161.142-.321.216-.493.191-.45.363-.899.535-1.349l.013-.031c.203-.566.419-1.127.591-1.706.191-.566.376-1.145.536-1.724a9.19 9.19 0 01.191-.684 6.84 6.84 0 00.172-.708c.074-.191.117-.406.16-.61.056-.258.117-.523.173-.794.043-.191.086-.376.117-.548.03-.148.043-.29.086-.437 0-.013 0-.013-.012-.044.03-.012.03-.043.03-.086.056-.289.099-.579.161-.899 0-.031.012-.074.012-.129.055-.321.098-.635.148-.943.03-.215.074-.449.086-.695.043-.235.055-.45.086-.696.031-.234.043-.45.074-.678 0-.191.031-.376.031-.566.012-.099.012-.191.031-.278.012-.191.03-.363.043-.548 0-.332.03-.634.03-.973.013-.363.031-.739.031-1.102v-1.115c.037-.246.025-.536.025-.825z" fill="url(#paint2_linear_2_1018)"/><path d="M235.889 187.286v1.115c0 .369-.013.733-.031 1.102 0 .327-.019.647-.031.973-.012.185-.018.37-.043.554-.012.081-.012.173-.019.265-.012.197-.03.376-.043.573-.018.222-.043.45-.074.684a8.671 8.671 0 01-.08.696 18.096 18.096 0 01-.234 1.638c.013.049-.012.092-.012.135-.049.308-.105.604-.166.899 0 .031 0 .074-.019.08a.066.066 0 01.013.044c-.044.141-.062.295-.093.431-.031.184-.074.369-.111.56-.061.265-.111.53-.172.788a7.018 7.018 0 01-.154.616c-.049.234-.111.468-.173.702-.073.234-.135.462-.197.684a49.327 49.327 0 01-1.12 3.43l-.019.031c-.172.45-.345.899-.53 1.337-.074.172-.141.338-.215.498-.105.228-.265.604-.37.838-.314.665-.634 1.33-.973 1.983l-.511.942a26.27 26.27 0 01-.53.918c0 .012 0 .012-.012.018-.142.247-.283.499-.449.733-.154.253-.296.499-.462.758l-.253.376a7.436 7.436 0 01-.369.542c-.136.203-.265.4-.401.591-.141.185-.277.375-.418.573-.278.387-.561.763-.85 1.133-.154.184-.296.375-.438.542a15.33 15.33 0 01-.794.96c-.043.062-.092.111-.136.173a18.37 18.37 0 00-.437.493c-.308.344-.634.683-.961 1.034-.104.111-.215.222-.326.339l-.018.043c-.167.142-.308.308-.462.45l-.062.074c-.216.197-.419.4-.622.591-.142.154-.296.283-.45.419-.357.338-.726.652-1.096.973a6.293 6.293 0 01-.437.375c-.062.062-.142.111-.216.167-.135.123-.277.234-.431.357-.172.141-.357.295-.542.431-.184.142-.369.283-.554.431-.185.135-.369.277-.56.419-.37.265-.758.529-1.134.794-.197.136-.388.265-.603.401a37.05 37.05 0 01-1.146.726c-.4.234-.794.481-1.207.702-.031.031-.08.043-.111.074-.203.111-.4.216-.591.314-.197.111-.376.204-.573.314h-.012c-.111.05-.215.124-.314.173-.185.08-.376.172-.56.277-.198.08-.376.185-.573.277-.049.019-.111.049-.166.074-.013.012-.031.019-.05.031a.634.634 0 00-.184.092c-.019 0-.031.013-.05.013-.234.11-.468.215-.696.314a7.39 7.39 0 01-.56.246c-.012 0-.031.018-.043.018-.185.062-.345.136-.511.204-.315.135-.647.252-.98.388-.08.03-.166.074-.246.092a.133.133 0 01-.074.019c-.252.092-.511.197-.764.283-.264.092-.542.185-.819.277 0 0-.018.012-.03.012-.542.173-1.084.345-1.626.493-.019.012-.043.012-.05.018-.554.142-1.084.296-1.632.419-.56.142-1.133.253-1.706.37-.375.08-.776.154-1.164.215-.338.062-.677.111-1.022.167-.228.043-.468.061-.696.104-.154.013-.283.031-.437.043-.043 0-.074.013-.105.019-.154.012-.308.031-.449.043a9.671 9.671 0 01-.431.043c-.253.031-.512.043-.776.062-.136.012-.265.03-.401.03-.185.013-.357.031-.554.044-.216 0-.419.012-.641.03-.043-.012-.08-.012-.123-.012-.172 0-.345.019-.529.019h-.216c-.345.012-.696.012-1.035.012l-30.99-.234a32.028 32.028 0 01-16.062-4.422 35.253 35.253 0 01-3.904-2.698 32.26 32.26 0 01-7.446-8.56l-.019-.019-.683-1.225c-.031-.043-.043-.08-.074-.111l-2.34-4.139-.284-.498-11.941-21.057-.296-.499v-.012l12.558-21.371.283.524 6.14 10.808 5.802 10.236 9.01 15.865c0 .018.012.043.018.043l.314.554a10.72 10.72 0 009.084 5.136l34.113.247c11.307 0 21.069-8.61 21.765-19.923.012-.173.018-.345.03-.512.013-.283.019-.572.019-.856.074-9.182-4.853-17.225-12.237-21.555l.012-.012 2.39-4.09c.018-.043.061-.08.08-.135l.714-1.207c-.012-.013 0-.013 0-.019a32.102 32.102 0 003.689-10.716l.074-.172c7.089 2.352 13.66 9.533 17.367 15.723.031.031.043.074.062.105l.388.696c.043.049.049.104.08.141.246.45.499.899.727 1.349.018.018.03.043.03.061.105.185.198.37.284.561.031.074.074.135.104.215.013.031.044.062.05.093.104.203.197.4.283.591.012.012.012.012.012.031.019.018.019.049.043.08.111.234.216.468.327.714 0 .019 0 .031.018.043.111.278.234.542.345.82.074.172.142.344.216.511.049.141.111.283.166.431.074.185.142.388.228.585.074.197.135.388.203.585.012 0 .013.012.013.012.141.401.277.789.4 1.195.074.197.135.4.197.604.166.529.326 1.071.462 1.625.08.253.141.53.203.807.136.542.265 1.097.37 1.645.135.622.246 1.256.338 1.89.074.45.136.9.197 1.349.031.234.05.48.08.727.019.228.031.462.074.683.019.234.031.468.05.703.012.153.018.338.043.511 0 .123.012.246.012.388.018.154.018.326.031.48v.105c.012.234.018.529.031.825z" fill="url(#paint3_linear_2_1018)"/><path d="M168.205 145.456v.019l-12.434-.105-11.77-.092-18.26-.136h-.665a6.11 6.11 0 00-.573.031c-.135.012-.252.019-.388.043l-.185.031c-.252.031-.511.074-.763.123-.437.08-.881.203-1.306.345-.135.049-.277.105-.406.154-.031.012-.074.019-.105.043a8.496 8.496 0 00-1.441.702.929.929 0 00-.166.105c0 .012-.013.012-.013.012-.406.247-.788.524-1.151.819a6.788 6.788 0 00-.499.431c-.154.142-.314.296-.468.45a10.835 10.835 0 00-1.522 2.02l-17.182 29.26c-5.537 9.423-3.4 21.647 5.167 28.176.357.277.733.529 1.115.788.375.252.763.493 1.164.727 7.907 4.649 17.349 4.403 24.788.184l2.341 4.139c.03.031.043.074.073.111l.684 1.225.019.019a32.166 32.166 0 007.445 8.56l.105.142c-5.58 4.964-15.089 7.07-22.294 7.175h-.93c-.05 0-.093-.012-.154-.012-.511 0-1.023-.019-1.54-.043-.018 0-.043 0-.049-.013-.216 0-.419-.018-.634-.031-.074 0-.154-.012-.235-.012-.03-.012-.073-.012-.11-.018-.241-.062-1.583-.136-1.595-.136-.296-.031-.592-.074-.881-.105-.197-.018-.376-.049-.561-.08-.154-.012-.295-.043-.437-.061-.215-.031-.431-.062-.634-.105-.197-.031-.407-.074-.604-.105h-.012c-.407-.08-.819-.166-1.238-.252-.203-.043-.406-.08-.616-.136a29.905 29.905 0 01-1.632-.406c-.265-.074-.542-.154-.819-.228-.53-.166-1.065-.326-1.595-.511a33.539 33.539 0 01-1.811-.653 18.54 18.54 0 01-1.268-.511c-.216-.092-.45-.197-.665-.283-.216-.105-.432-.197-.635-.296a7.093 7.093 0 01-.622-.296c-.166-.074-.314-.154-.468-.221-.123-.062-.234-.105-.345-.173a5.434 5.434 0 00-.43-.215l-.081-.05a32.53 32.53 0 01-.788-.418c-.327-.173-.635-.37-.961-.555-.326-.197-.634-.375-.949-.572-.277-.167-.541-.345-.819-.524l-.462-.308c-.08-.049-.153-.092-.221-.154-.166-.105-.308-.215-.468-.326a7.789 7.789 0 01-.56-.401 22.335 22.335 0 01-.561-.418c-.172-.142-.37-.277-.554-.419-.253-.197-.5-.388-.746-.604a.225.225 0 01-.104-.08c-.247-.184-.48-.388-.702-.585-.019-.018-.044-.031-.062-.061-.012.012-.018 0-.03-.019a7.24 7.24 0 01-.327-.283 8.28 8.28 0 01-.437-.376c-.197-.185-.4-.357-.585-.542-.167-.154-.315-.283-.462-.437-.173-.166-.345-.326-.511-.499-.185-.172-.345-.345-.512-.511a25.21 25.21 0 01-1.238-1.33 29.6 29.6 0 01-1.176-1.38c-.012 0-.012-.012-.018-.018-.296-.37-.592-.746-.887-1.121a10.88 10.88 0 00-.431-.585 12.68 12.68 0 01-.431-.604 37.922 37.922 0 01-1.238-1.829c-.197-.283-.376-.604-.555-.911-.197-.296-.37-.604-.554-.918l-.012-.019c-.136-.246-.265-.492-.407-.757a23.42 23.42 0 01-.418-.776c0-.012-.013-.019-.019-.043a3.849 3.849 0 00-.185-.357 16.827 16.827 0 01-.295-.592 15.043 15.043 0 01-.296-.646 12.44 12.44 0 01-.296-.653 22.15 22.15 0 01-.541-1.306 6.397 6.397 0 01-.253-.653 13.183 13.183 0 01-.437-1.164c-.019-.061-.05-.123-.062-.197-.08-.215-.154-.431-.234-.634-.135-.437-.265-.881-.4-1.336-.05-.154-.093-.308-.142-.45 0-.031-.012-.031-.012-.049-.062-.203-.111-.419-.166-.616l-.019-.092c-.074-.284-.142-.561-.215-.85-.05-.185-.093-.388-.136-.573-.11-.493-.215-.973-.296-1.454a8.344 8.344 0 01-.104-.56c-.019-.092-.043-.185-.05-.277l-.092-.542c-.03-.222-.061-.462-.092-.684-.043-.234-.074-.462-.105-.683-.019-.234-.05-.468-.074-.696-.05-.462-.092-.93-.135-1.392-.019-.234-.031-.48-.044-.714-.018-.462-.043-.912-.061-1.368-.012-.462-.012-.917-.012-1.392.012-.043.012-.092.012-.141 0-.216.012-.437.012-.665 0-.216.013-.438.019-.653v-.012c.012-.111.012-.234.018-.358.012-.215.019-.418.031-.622.012-.215.03-.418.043-.634a.74.74 0 00.019-.172c.012-.031 0-.05.012-.062 0-.074.012-.136.012-.203.013-.019.013-.043.013-.062.018-.246.049-.511.073-.757.019-.204.044-.407.074-.604 0-.012 0-.043.013-.049.018-.173.043-.37.073-.542.05-.345.105-.696.154-1.035.013-.092.031-.185.044-.277 0-.018.012-.043.012-.062.05-.277.092-.542.142-.819.049-.277.11-.554.172-.825 0-.018 0-.043.012-.049.111-.554.234-1.09.376-1.657.012-.012.012-.031.012-.049.154-.542.284-1.084.45-1.626.166-.554.345-1.102.53-1.657.135-.351.27-.72.412-1.09.123-.314.234-.646.37-.961.092-.221.172-.437.264-.652.062-.142.124-.277.173-.419.018-.019.03-.062.043-.092.062-.136.123-.278.197-.407.05-.135.111-.265.166-.388l.34-.714c.06-.124.11-.234.184-.345.08-.167.154-.339.246-.499.105-.185.185-.376.284-.561l.073-.11c.08-.167.154-.314.247-.468.018-.019.03-.062.05-.093l.06-.105c.167-.307.34-.591.5-.886l15.68-26.717c2.98-5.056 7.113-9.01 11.873-11.695a31.119 31.119 0 014.299-2.02 32.163 32.163 0 0111.135-2.174h.012l1.411.012c.049-.012.104 0 .141 0l4.742.031.592.013 24.203.172 12.225 21.524z" fill="url(#paint4_linear_2_1018)"/><path d="M121.35 145.918a9.747 9.747 0 00-1.269.616c-.061.031-.123.062-.172.093.4-.259.948-.524 1.441-.709z" fill="url(#paint5_linear_2_1018)"/><path d="M168.205 145.475l-12.231 20.835-.019.018-24.788-.185-12.558 21.371v.012l.296.499 11.942 21.056.283.499c-7.44 4.219-16.881 4.465-24.789-.184-.4-.234-.788-.468-1.164-.727a20.702 20.702 0 01-1.114-.788c-8.573-6.529-10.71-18.76-5.168-28.176l17.183-29.26c.431-.745.949-1.423 1.521-2.02.154-.154.314-.308.468-.45a11.008 11.008 0 011.651-1.25s.012 0 .012-.012a.78.78 0 01.166-.105 8.111 8.111 0 011.442-.702c.03-.018.073-.031.104-.043.136-.049.277-.105.407-.154a9.891 9.891 0 011.305-.345c.253-.049.512-.092.764-.123.185-.031.376-.049.573-.074.197-.018.375-.031.573-.031h.665l18.26.136 11.769.092 12.447.111z" fill="url(#paint6_linear_2_1018)"/><path d="M212.8 145.795a32.894 32.894 0 01-.401 4.742 32.115 32.115 0 01-3.689 10.717c0 .012-.012.012 0 .018l-.714 1.207c-.019.049-.062.092-.08.136l-2.39 4.089-.012.012-.296.499-12.249 20.872-24.789-.185 6.294-10.728 5.956-10.144 9.244-15.741.031-.031.314-.554c1.706-3.147 1.81-7.089-.105-10.433l-16.733-29.506c-.061-.105-.111-.197-.185-.296-5.475-9.336-17.071-13.462-26.944-9.268-.283.123-.572.252-.856.388-.08.043-.172.08-.252.123-.05.031-.105.049-.154.08-.357.172-.702.369-1.053.56a24.67 24.67 0 00-8.512 7.982 25.045 25.045 0 00-4.058 13.395l-4.742-.031c-.043 0-.093-.012-.142 0l-1.398-.012h-.012a32.085 32.085 0 00-11.135 2.174l-.185.012c-1.503-7.316 1.429-16.604 4.933-22.904l.062-.092.406-.696-.012-.013.08-.123c.265-.437.53-.887.819-1.318l.37-.572c.049-.074.092-.136.141-.197.019-.031.031-.074.062-.105.123-.173.375-.554.375-.554l.062-.093c.142-.203.296-.419.462-.622l.018-.043c.173-.234.345-.468.53-.714.105-.142.228-.296.345-.438.092-.123.172-.234.277-.357.136-.154.265-.326.4-.48.124-.166.265-.314.388-.48 0 0 .432-.469.85-.949.136-.154.277-.314.419-.468a74.06 74.06 0 011.176-1.207c.204-.197.407-.4.604-.591.406-.388.807-.764 1.238-1.134.48-.418.973-.837 1.472-1.237.345-.284.714-.56 1.071-.838.185-.142.388-.296.592-.431.184-.136.369-.277.56-.4.197-.142.376-.284.573-.407l.431-.283c.111-.074.203-.142.314-.204a7.46 7.46 0 00.406-.277.596.596 0 00.093-.049c.246-.154.499-.308.745-.462.443-.277.961-.554.961-.554.314-.185.64-.37.973-.542.283-.142.585-.308.856-.45.172-.092.326-.166.499-.234.08-.049.154-.08.234-.123.185-.08.345-.172.511-.246.215-.105.431-.197.647-.283.215-.105.418-.198.634-.284.215-.08.431-.166.647-.265.32-.154.967-.388 1.022-.406.283-.105.573-.203.856-.296.018-.018.388-.141.53-.197.172-.049.345-.11.529-.172.253-.092.511-.166.776-.246.203-.062.407-.124.604-.173.222-.074.462-.135.696-.197.234-.062.468-.123.696-.197.585-.142 1.176-.265 1.755-.4.591-.124 1.182-.222 1.78-.327a.03.03 0 01.043 0c.468-.08.948-.154 1.41-.215.247-.031.493-.05.733-.08.246-.031.48-.062.727-.074.726-.074 1.472-.111 2.198-.154a20.22 20.22 0 011.072-.031c.357 0 .696-.012 1.065 0 0-.012.013-.012.019-.012.283 0 .573.012.856.018.296.012.591.019.887.03.111 0 .246.013.369.02.019-.013.05 0 .08.012.222.012.438.018.666.043.234.018.48.03.702.061.246.019.468.044.714.062.468.05.942.11 1.398.172.234.043.468.074.696.111.406.062.819.123 1.226.216.073 0 .141.018.203.03.221.05.437.08.653.136.461.092.917.203 1.367.308.154.03.308.074.468.11 0 .013.018 0 .043.013.203.062.419.111.622.173l.08.012c.277.092.561.166.825.246.204.05.388.111.585.185a26.9 26.9 0 011.398.462c.185.061.358.123.542.197.074.03.173.05.247.092.172.062.345.136.529.197.204.093.419.173.647.247.216.105.431.185.634.277.228.092.431.185.647.277.419.185.838.388 1.256.591.216.105.431.204.647.314.407.204.807.407 1.213.622.407.228.807.45 1.214.696l.104.074c.203.105.388.228.585.345.185.105.37.222.555.345h.012c.092.062.203.123.308.197l.523.339c.173.123.345.234.524.357.061.03.092.074.154.105l.049.043c.049.03.105.074.154.11l.049.032c.216.154.419.295.635.45.154.11.314.233.48.356l.043.031c.136.11.283.222.431.339.277.215.542.437.819.653.074.049.154.104.216.172l.049.03c.216.173.431.358.634.53.216.198.419.376.635.573.012 0 .031.013.031.031.431.376.837.758 1.244 1.152.012.018.018.018.03.043.407.388.807.788 1.183 1.195.4.418.788.85 1.182 1.3.253.282.499.59.758.886.215.265.437.554.653.819.135.185.295.37.431.554l.265.358c.018.03.043.061.061.08.08.123.173.246.265.37.092.11.166.22.246.338.154.228.296.437.45.653.074.104.142.215.222.326.104.154.203.308.295.468.123.173.234.357.345.53.019.043.049.074.062.111.104.141.197.283.283.449.019.019.031.062.049.08.013.031.043.074.062.111.172.283.345.585.511.881l15.292 26.95a31.987 31.987 0 014.219 16.123z" fill="url(#paint7_linear_2_1018)"/><path d="M217.751 188.265c0 .284-.012.573-.018.856-.013.167-.019.339-.031.512-.696 11.307-10.451 19.923-21.765 19.923l-34.113-.246a10.738 10.738 0 01-9.084-5.137l-.314-.554c-.012 0-.018-.019-.018-.043l-9.01-15.865-5.802-10.236-6.14-10.808-.283-.523 24.788.184-.012.013.283.498.013.013.012.031 11.935 21.013 24.789.185 12.25-20.872.295-.499c7.372 4.33 12.299 12.373 12.225 21.555z" fill="url(#paint8_linear_2_1018)"/><path d="M190.025 150.698l-.314.554-.031.031-9.244 15.741-5.955 10.144-6.294 10.728-11.936-21.013-.012-.031-.013-.012-.283-.499.031-.031 12.231-20.835v-.018l-12.231-21.549-24.204-.173-.591-.012a24.996 24.996 0 014.059-13.395c2.081-3.196 4.957-5.956 8.511-7.982.345-.197.696-.388 1.053-.56.049-.031.105-.049.154-.08.08-.043.173-.08.253-.123.283-.136.572-.265.856-.388 9.872-4.2 21.463-.074 26.944 9.268.074.105.123.197.184.296l16.734 29.506c1.909 3.344 1.804 7.286.098 10.433z" fill="url(#paint9_linear_2_1018)"/></g><defs><linearGradient id="paint1_linear_2_1018" x1="156" y1="18" x2="156" y2="294" gradientUnits="userSpaceOnUse"><stop stop-color="#202738"/><stop offset="1" stop-color="#070816"/></linearGradient><linearGradient id="paint2_linear_2_1018" x1="206.67" y1="105.258" x2="120.991" y2="240.205" gradientUnits="userSpaceOnUse"><stop offset=".031" stop-color="#D495FF"/><stop offset=".321" stop-color="#A671FF"/><stop offset=".703" stop-color="#778BFF"/></linearGradient><linearGradient id="paint3_linear_2_1018" x1="126.948" y1="174.282" x2="230.612" y2="203.383" gradientUnits="userSpaceOnUse"><stop stop-color="#717EFE"/><stop offset=".986" stop-color="#4F91FF"/></linearGradient><linearGradient id="paint4_linear_2_1018" x1="88.845" y1="213.996" x2="162.611" y2="135.321" gradientUnits="userSpaceOnUse"><stop stop-color="#78CCFF"/><stop offset=".956" stop-color="#508CFD"/></linearGradient><linearGradient id="paint5_linear_2_1018" x1="120.181" y1="146.055" x2="121.076" y2="146.485" gradientUnits="userSpaceOnUse"><stop offset=".022" stop-color="#5553FD"/><stop offset=".591" stop-color="#A9A6FD"/></linearGradient><linearGradient id="paint6_linear_2_1018" x1="112.091" y1="210.644" x2="151.994" y2="120.986" gradientUnits="userSpaceOnUse"><stop offset=".004" stop-color="#fff"/><stop offset=".17" stop-color="#E7EDFF"/><stop offset=".518" stop-color="#A9C1FE"/><stop offset=".719" stop-color="#82A5FE"/></linearGradient><linearGradient id="paint7_linear_2_1018" x1="140.744" y1="75.408" x2="186.598" y2="192.494" gradientUnits="userSpaceOnUse"><stop offset=".017" stop-color="#D69BFD"/><stop offset=".973" stop-color="#7E5CF7"/></linearGradient><linearGradient id="paint8_linear_2_1018" x1="142.632" y1="170.532" x2="230.56" y2="208.998" gradientUnits="userSpaceOnUse"><stop stop-color="#98A9F4"/><stop offset=".777" stop-color="#fff"/></linearGradient><linearGradient id="paint9_linear_2_1018" x1="165.326" y1="188.697" x2="158.728" y2="100.783" gradientUnits="userSpaceOnUse"><stop offset=".074" stop-color="#A187FE"/><stop offset="1" stop-color="#fff"/></linearGradient><filter id="filter0_i_2_1018" x="0" y="0" width="312" height="316" filterUnits="userSpaceOnUse" color-interpolation-filters="sRGB"><feFlood flood-opacity="0" result="BackgroundImageFix"/><feBlend in="SourceGraphic" in2="BackgroundImageFix" result="shape"/><feColorMatrix in="SourceAlpha" values="0 0 0 0 0 0 0 0 0 0 0 0 0 0 0 0 0 0 127 0" result="hardAlpha"/><feOffset dy="4"/><feGaussianBlur stdDeviation="5"/><feComposite in2="hardAlpha" operator="arithmetic" k2="-1" k3="1"/><feColorMatrix values="0 0 0 0 0.283333 0 0 0 0 0.484 0 0 0 0 1 0 0 0 0.8 0"/><feBlend in2="shape" result="effect1_innerShadow_2_1018"/></filter><filter id="filter1_i_2_1018" x="18" y="18" width="276" height="280" filterUnits="userSpaceOnUse" color-interpolation-filters="sRGB"><feFlood flood-opacity="0" result="BackgroundImageFix"/><feBlend in="SourceGraphic" in2="BackgroundImageFix" result="shape"/><feColorMatrix in="SourceAlpha" values="0 0 0 0 0 0 0 0 0 0 0 0 0 0 0 0 0 0 127 0" result="hardAlpha"/><feOffset dy="4"/><feGaussianBlur stdDeviation="50"/><feComposite in2="hardAlpha" operator="arithmetic" k2="-1" k3="1"/><feColorMatrix values="0 0 0 0 0.283333 0 0 0 0 0.484 0 0 0 0 1 0 0 0 0.3 0"/><feBlend in2="shape" result="effect1_innerShadow_2_1018"/></filter><radialGradient id="paint0_radial_2_1018" cx="0" cy="0" r="1" gradientUnits="userSpaceOnUse" gradientTransform="rotate(90 0 156) scale(156)"><stop stop-color="#497CFF"/><stop offset="1" stop-color="#473AFF"/></radialGradient><clipPath id="clip0_2_1018"><path fill="#fff" transform="translate(75 81)" d="M0 0h160.888v150H0z"/></clipPath></defs></svg>