<svg width="20" height="20" fill="none" xmlns="http://www.w3.org/2000/svg"><rect width="20" height="20" rx="10" fill="#5553FD"/><g clip-path="url(#clip0_32_29332)"><path d="M16.868 12.432v-.008c0-.012 0-.026-.002-.038l-.001-.031-.003-.04-.004-.057c-.003-.018-.004-.037-.006-.055l-.007-.058-.015-.108a3.124 3.124 0 00-.028-.152 1.88 1.88 0 00-.029-.13.659.659 0 00-.016-.066c-.01-.043-.024-.088-.037-.13a2.414 2.414 0 00-.048-.145v.001c-.007-.016-.011-.031-.017-.047l-.017-.047-.014-.033-.016-.042c-.01-.022-.02-.043-.028-.065-.002-.001-.002-.002-.002-.003l-.026-.057-.003-.007-.001-.003c-.007-.015-.016-.03-.023-.047l-.004-.007c-.002-.007-.006-.011-.008-.017l-.023-.045a.007.007 0 00-.002-.005l-.059-.108c-.002-.003-.003-.008-.006-.011l-.031-.056a.028.028 0 00-.005-.008c-.297-.496-.822-1.07-1.389-1.258l-.006.014a2.566 2.566 0 00-.306-1.67l-1.223-2.156a1.587 1.587 0 00-.045-.08c-.002 0-.003-.004-.004-.006-.007-.013-.016-.024-.024-.036 0-.003-.003-.006-.004-.01-.01-.013-.017-.027-.027-.041l-.024-.039a.195.195 0 01-.018-.025c-.013-.017-.024-.035-.036-.052-.007-.01-.013-.02-.02-.028-.007-.01-.015-.02-.02-.03-.003 0-.004-.004-.007-.006a1.296 1.296 0 00-.02-.028c-.01-.015-.024-.03-.034-.045l-.053-.065c-.02-.023-.04-.049-.06-.07a2.724 2.724 0 00-.19-.201l-.003-.002a1.993 1.993 0 00-.1-.093c0-.003 0-.003-.002-.003l-.05-.046c-.017-.014-.034-.027-.05-.042l-.005-.003a.08.08 0 00-.017-.014c-.022-.016-.043-.035-.065-.052a.351.351 0 01-.035-.027l-.004-.002-.038-.03a1.615 1.615 0 01-.05-.035l-.004-.003-.013-.01-.003-.003a.142.142 0 01-.013-.007c-.014-.01-.028-.02-.042-.028l-.042-.028-.024-.015h-.001a.348.348 0 00-.044-.027c-.015-.01-.03-.02-.046-.028l-.008-.006-.097-.056-.098-.05-.05-.025a2.671 2.671 0 00-.154-.07.425.425 0 01-.05-.022.385.385 0 01-.052-.02c-.015-.004-.029-.01-.043-.015-.005-.003-.013-.004-.018-.008-.016-.004-.03-.01-.044-.015l-.112-.037a.296.296 0 00-.047-.014c-.02-.006-.044-.012-.066-.02h-.007l-.05-.014-.002-.001-.038-.01-.11-.024c-.016-.003-.034-.005-.052-.01l-.017-.002a1.344 1.344 0 00-.097-.018l-.056-.009-.112-.014a.97.97 0 01-.057-.004 1.095 1.095 0 00-.057-.005c-.018 0-.035-.002-.053-.003l-.007-.001-.029-.001c-.024-.001-.047-.001-.07-.003h-.156c-.028 0-.057 0-.086.002a3.432 3.432 0 00-.175.013c-.02 0-.038.003-.058.006-.02.002-.04.003-.06.007-.036.004-.075.01-.113.016h-.002a2.893 2.893 0 00-.142.026l-.142.031a.534.534 0 01-.056.017.777.777 0 00-.055.015l-.048.014-.062.02-.043.013c-.01.005-.04.014-.042.017-.023.006-.046.015-.068.023a.695.695 0 00-.083.032l-.05.022a.757.757 0 00-.051.023l-.052.023-.04.02c-.008.003-.014.005-.02.01a.185.185 0 00-.04.019 4.377 4.377 0 01-.068.035l-.078.043s-.042.023-.076.044l-.06.037-.007.005c-.01.006-.022.013-.033.022a.132.132 0 00-.025.016l-.035.023c-.015.01-.03.02-.046.033l-.044.03a.434.434 0 00-.048.036 1.93 1.93 0 00-.085.067 2.5 2.5 0 00-.119.098c-.035.03-.066.06-.098.09a3.473 3.473 0 00-.142.144l-.034.038-.069.076-.03.039a.401.401 0 00-.032.038l-.022.029c-.01.012-.02.023-.028.035l-.043.057v.003a1.083 1.083 0 00-.038.05l-.004.008-.03.044c-.003.002-.004.006-.005.008a.096.096 0 00-.011.015l-.03.046c-.023.034-.044.07-.065.106l-.007.009-.032.057-.006.006c-.282.505-.515 1.248-.395 1.833h.014a2.573 2.573 0 00-1.294 1.097L4.55 10.824l-.04.07-.006.009a.03.03 0 01-.003.006c-.008.013-.013.025-.02.039l-.006.01-.023.043-.02.04a.178.178 0 00-.013.028l-.028.057a.269.269 0 01-.013.03l-.015.033a.12.12 0 01-.004.008l-.013.034c-.008.016-.014.033-.022.052a2.402 2.402 0 00-.062.165c-.015.044-.03.089-.043.133-.013.043-.023.086-.036.13v.004a1.672 1.672 0 00-.031.132v.005a.632.632 0 00-.014.066l-.012.066v.004l-.004.022-.012.082c-.003.014-.004.03-.006.043v.005a.727.727 0 00-.007.048c0 .02-.004.04-.006.06v.021c-.002.001 0 .003-.002.005 0 .006 0 .01-.002.014l-.002.05c-.001.017-.003.033-.003.05 0 .01 0 .02-.002.03l-.001.052-.001.054-.001.011v.11l.005.11.004.057.01.111.006.056a.58.58 0 00.008.056c.002.017.004.035.008.054l.006.043.004.022.01.046c.005.038.013.077.022.115l.01.047.018.067.001.008c.004.015.008.032.014.048v.005l.012.036c.01.037.022.072.032.106.006.016.011.034.019.05 0 .007.003.011.004.016a.76.76 0 00.036.094l.02.052c.014.036.028.07.044.104.007.02.015.036.023.053a.632.632 0 00.024.052l.023.047a.02.02 0 01.004.006l.012.023v.003c.01.022.023.042.034.062l.033.06v.003c.016.024.03.05.044.073a1.85 1.85 0 00.144.219l.033.048.035.047.07.09h.003c.03.04.061.076.093.11.031.038.065.073.099.107l.04.04.042.04a.415.415 0 00.037.036c.014.015.03.029.046.044l.035.03.026.023s.001.002.003 0c0 .003.003.004.004.005.02.017.037.033.057.047a.011.011 0 00.008.007l.059.048.044.034.045.033c.015.01.03.023.046.031.012.01.024.02.036.027a.145.145 0 00.02.012l.036.024c.022.014.043.029.065.042l.077.046a1.99 1.99 0 00.138.078l.007.003c.01.006.024.012.035.017.008.006.018.01.028.014l.037.019a.381.381 0 00.05.023l.05.024.054.022a2.402 2.402 0 00.246.094c.042.015.085.028.127.04l.066.02a3.35 3.35 0 00.18.042l.098.02h.001c.016.003.033.007.05.009a.572.572 0 00.049.008c.012 0 .023.003.036.004l.045.007.07.008s.109.006.127.01l.01.001.018.001.051.003h.005c.042.002.082.004.122.004h.087c.575-.008 1.337-.176 1.784-.573l-.008-.012a2.569 2.569 0 001.596.57l2.48.019h.1c.013 0 .027-.003.041-.003l.01.001c.018-.002.034-.002.051-.002l.044-.004a.227.227 0 00.033-.002c.02-.003.041-.003.062-.005l.034-.003.036-.004h.008c.012-.002.023-.004.036-.004a.617.617 0 01.055-.008 1.17 1.17 0 00.082-.014c.03-.004.063-.01.093-.016.045-.01.092-.019.136-.03.045-.01.086-.022.13-.034h.005a3.149 3.149 0 00.198-.063l.062-.023.006-.001.018-.007c.028-.012.054-.02.08-.031a.358.358 0 01.04-.016l.003-.003a.434.434 0 00.045-.02l.056-.024h.004a.067.067 0 01.014-.009c.003 0 .004 0 .005-.002a.05.05 0 00.012-.006l.047-.022.044-.022.025-.014h.001l.047-.026.046-.024c.003-.003.007-.003.01-.006l.096-.056.092-.059.047-.032c.03-.02.062-.042.09-.064l.046-.033.044-.034a.365.365 0 00.043-.035.363.363 0 00.034-.029.08.08 0 00.017-.012l.036-.03.087-.078a.33.33 0 00.036-.034c.016-.015.032-.032.05-.047l.004-.006.037-.036.002-.004.026-.026a4.144 4.144 0 00.112-.122l.01-.014a.92.92 0 00.064-.076l.035-.044a2.216 2.216 0 00.133-.184.38.38 0 00.03-.043l.02-.03a.649.649 0 00.037-.06c.014-.02.024-.04.036-.059l.001-.002.043-.073.04-.076a7.776 7.776 0 00.107-.225l.017-.04c.016-.036.03-.072.043-.107l.001-.003c.017-.045.034-.09.048-.136a2.59 2.59 0 00.072-.25.374.374 0 00.012-.048l.014-.064.01-.044.006-.035v-.003c.002-.001.002-.004.002-.007l.013-.072v-.01l.012-.076a.45.45 0 00.007-.056c.004-.018.005-.036.007-.055l.006-.055.003-.045c0-.008 0-.015.002-.022l.003-.044c0-.026.003-.05.003-.078l.002-.088v-.089c.003-.02.002-.043.002-.066z" fill="url(#paint0_linear_32_29332)"/><path d="M16.871 12.503v.09c0 .029 0 .058-.002.087 0 .027-.002.052-.003.078l-.003.045-.002.02c0 .016-.002.03-.003.046a1.124 1.124 0 01-.012.11l-.007.057-.012.075-.001.01a1.67 1.67 0 01-.014.073l-.001.006a.005.005 0 01.001.004c-.004.01-.005.023-.007.034l-.01.045-.013.063a.544.544 0 01-.012.05l-.014.055-.016.055a4.09 4.09 0 01-.09.274l-.001.003a3.396 3.396 0 01-.043.107.283.283 0 01-.017.04c-.008.018-.02.048-.03.067a4.75 4.75 0 01-.077.159l-.041.075a2.15 2.15 0 01-.042.073l-.001.002c-.012.02-.023.04-.036.058l-.037.061-.02.03a.557.557 0 01-.03.043c-.01.017-.021.032-.032.048l-.034.046a2.612 2.612 0 01-.068.09c-.012.015-.023.03-.035.043a.81.81 0 01-.063.077l-.01.014a1.253 1.253 0 00-.036.04l-.077.082c-.008.01-.017.018-.026.027l-.001.004c-.014.011-.025.024-.037.036l-.005.006-.05.047c-.011.012-.024.023-.036.034a2.107 2.107 0 01-.088.077.504.504 0 01-.035.03l-.017.014c-.01.01-.022.019-.034.028l-.044.035-.044.034-.045.034-.09.063-.049.032c-.03.02-.06.04-.092.059-.032.018-.063.038-.096.056-.002.002-.007.003-.009.006a2.62 2.62 0 01-.047.025l-.046.025h-.001l-.025.014a.465.465 0 00-.045.022c-.016.006-.03.015-.046.022l-.013.006-.004.002a.053.053 0 00-.015.008h-.004a1.896 1.896 0 01-.1.046l-.004.001-.04.016-.079.031-.02.008a.01.01 0 01-.006.001l-.06.023-.066.022-.003.001c-.043.014-.086.028-.13.04l-.004.001c-.044.011-.086.024-.13.034l-.137.029-.093.017-.082.014-.055.008c-.013 0-.023.002-.035.003l-.009.002-.036.003a.727.727 0 01-.034.004l-.062.005-.032.002-.045.004a.595.595 0 00-.05.002h-.07c-.028.002-.056.002-.083.002l-2.48-.02a2.561 2.561 0 01-1.597-.569 2.583 2.583 0 01-.595-.684l-.002-.002-.054-.098-.006-.009-.188-.331-.022-.04-.956-1.684-.023-.04v-.001l1.004-1.71.023.042.491.865.464.818.721 1.27.002.003.025.044c.15.246.42.409.726.411l2.73.02c.904 0 1.685-.689 1.74-1.594l.003-.04a1.978 1.978 0 00-.977-1.793v-.002l.192-.327c.001-.003.005-.006.006-.01l.057-.097v-.002a2.54 2.54 0 00.296-.857l.005-.014c.567.188 1.093.763 1.39 1.258l.005.008.03.056c.004.004.005.008.007.011.02.036.04.072.058.108a.553.553 0 01.025.05l.009.017c0 .003.003.005.004.008a1.046 1.046 0 01.023.05c.002.001.002.003.004.006l.026.057.001.004c.01.022.02.043.028.065l.017.041.014.034c.005.015.01.032.018.047l.016.047.001.001a2.33 2.33 0 01.048.144c.013.042.026.086.037.13l.016.064a2.474 2.474 0 01.057.283l.016.108c.002.019.003.039.006.058a.33.33 0 00.006.055l.004.056.003.041.001.031c.002.012.002.026.003.039v.008l.002.066z" fill="url(#paint1_linear_32_29332)"/><path d="M11.456 9.157v.001l-.995-.008-.941-.008-1.46-.01h-.054a.475.475 0 00-.046.002l-.031.003-.015.003a.874.874 0 00-.165.037l-.033.013a.678.678 0 00-.137.068.82.82 0 00-.17.137.863.863 0 00-.122.161l-1.375 2.341c-.442.754-.272 1.732.414 2.254a1.73 1.73 0 00.182.121 1.981 1.981 0 001.983.015l.187.331.006.009.055.098a2.575 2.575 0 00.597.686l.009.012c-.447.397-1.208.565-1.784.574h-.074l-.013-.001a2.55 2.55 0 01-.123-.004h-.004c-.017 0-.033-.002-.05-.003l-.02-.001-.008-.002a1.623 1.623 0 00-.128-.01l-.07-.009c-.016-.001-.03-.004-.045-.006l-.035-.005a.769.769 0 01-.05-.008l-.05-.009-.1-.02-.048-.011a2.37 2.37 0 01-.13-.032l-.066-.019-.128-.04a2.73 2.73 0 01-.246-.094c-.018-.007-.036-.016-.054-.022l-.05-.024a.568.568 0 01-.05-.024l-.038-.017-.027-.014a.481.481 0 00-.035-.018l-.006-.003a2.532 2.532 0 01-.063-.034c-.026-.014-.05-.03-.077-.044l-.076-.046c-.022-.013-.043-.028-.065-.042l-.037-.025c-.007-.004-.013-.007-.018-.012l-.038-.026a2.06 2.06 0 01-.09-.066l-.044-.033-.06-.048a.913.913 0 01-.065-.053c0-.002-.002-.003-.004-.006 0 .002-.001 0-.002 0l-.026-.024a.697.697 0 01-.035-.03l-.047-.043-.037-.035a.503.503 0 01-.04-.04l-.042-.04a2.046 2.046 0 01-.099-.107 2.32 2.32 0 01-.094-.11l-.001-.002-.071-.09a3.069 3.069 0 01-.168-.241c-.016-.023-.03-.048-.045-.073l-.044-.073-.001-.002-.032-.06a1.826 1.826 0 01-.034-.063l-.001-.003a.322.322 0 00-.015-.029c-.009-.015-.016-.03-.024-.047a1.144 1.144 0 01-.024-.052 1.06 1.06 0 01-.122-.302l-.005-.015-.018-.051c-.011-.035-.022-.07-.032-.107l-.012-.036v-.004c-.006-.016-.01-.034-.014-.05l-.002-.007-.017-.068-.01-.046a2.114 2.114 0 01-.024-.116l-.009-.045-.004-.022a3.848 3.848 0 01-.007-.043l-.007-.055-.009-.055-.006-.055-.01-.112-.004-.057-.005-.11v-.122l.001-.053.002-.052v-.001l.001-.029.003-.05c0-.017.002-.033.003-.05a.058.058 0 00.001-.014l.001-.005.001-.016.001-.005.006-.06a.773.773 0 01.006-.05l.001-.003a.646.646 0 01.006-.043l.012-.083.004-.022v-.005l.012-.066.014-.066.001-.004.03-.132.001-.004c.012-.044.023-.087.036-.13.013-.045.028-.088.042-.133l.033-.087.03-.077.021-.052.014-.034.003-.007.016-.033c.004-.01.01-.02.013-.03l.028-.058c.005-.01.008-.018.014-.027l.02-.04.023-.045.006-.009a.447.447 0 01.02-.037l.003-.008.005-.008.04-.071 1.255-2.137A2.564 2.564 0 017.099 7.59c.284-.11.586-.169.891-.173h.125l.38.003h.047l1.936.015.978 1.722z" fill="url(#paint2_linear_32_29332)"/><path d="M11.456 9.158l-.978 1.667-.002.001-1.983-.015-1.004 1.71v.001l.023.04.956 1.684.022.04a1.981 1.981 0 01-2.165-.136c-.686-.522-.857-1.5-.414-2.254l1.375-2.34a.847.847 0 01.291-.298l.001-.001a.642.642 0 01.129-.065l.008-.003.033-.012a.796.796 0 01.165-.038l.046-.006a.475.475 0 01.046-.002h.053l1.46.01.942.008.996.009z" fill="url(#paint4_linear_32_29332)"/><path d="M15.024 9.184a2.623 2.623 0 01-.327 1.236v.002l-.058.096c-.001.004-.005.008-.006.011l-.191.327-.001.001-.024.04-.98 1.67-1.983-.015.504-.858.476-.812.74-1.259.002-.002.025-.045a.856.856 0 00-.008-.834l-1.339-2.36-.014-.024c-.438-.747-1.366-1.077-2.156-.742a2.09 2.09 0 00-.069.031l-.02.01-.012.006c-.029.014-.056.03-.084.045a1.974 1.974 0 00-.681.639c-.209.318-.32.692-.325 1.071l-.38-.002h-.01l-.112-.001H7.99a2.57 2.57 0 00-.891.174h-.015c-.12-.585.114-1.328.395-1.832l.005-.007.032-.056.006-.01c.02-.035.042-.071.065-.106l.03-.046a.22.22 0 01.01-.015l.006-.009.03-.044.005-.008a.813.813 0 01.037-.05l.001-.003.043-.057a.86.86 0 01.027-.035l.022-.029.032-.038c.01-.013.022-.025.031-.038l.068-.076a2.304 2.304 0 01.128-.134l.048-.048a2.489 2.489 0 01.217-.19l.086-.066a.9.9 0 01.047-.035l.045-.032.046-.032a4.21 4.21 0 00.034-.023l.025-.016a.615.615 0 00.033-.022l.007-.004.06-.037c.035-.022.077-.045.077-.045a1.67 1.67 0 01.078-.043l.068-.036a.363.363 0 01.04-.019l.019-.01c.015-.006.027-.013.04-.02a.781.781 0 01.052-.022.765.765 0 01.103-.044 1.104 1.104 0 01.15-.056l.043-.016.042-.013a1.04 1.04 0 01.11-.034l.056-.016.056-.015c.046-.012.094-.022.14-.033.047-.01.095-.017.142-.026a3.135 3.135 0 01.116-.017l.06-.006a3.432 3.432 0 01.233-.019L10.416 4h.085l.002-.001.068.002.071.002.03.001.006.001.053.004c.02.001.039.002.057.005l.057.005.112.014.055.008c.033.005.066.01.098.018l.017.002.052.011c.037.007.073.016.11.025l.037.008.003.001.05.014.006.001c.022.008.045.014.066.02a2.12 2.12 0 01.202.067c.006.003.014.004.02.008l.042.016a.496.496 0 00.052.02l.05.021.053.023a1.5 1.5 0 01.1.047l.052.025.097.05.097.056.008.005.047.028c.015.008.03.018.044.028h.001l.025.015.042.027.042.029c.005.003.007.006.012.008l.004.004.012.009.004.002.051.036.039.029.003.002c.01.01.023.018.034.027l.066.053a.091.091 0 01.017.013l.004.003c.017.014.035.028.05.042l.052.046.002.002a2.2 2.2 0 01.1.093l.002.003a3.363 3.363 0 01.19.2l.06.07.052.066c.01.015.024.03.035.044l.02.029a.036.036 0 00.006.006l.02.03a.234.234 0 01.02.027l.037.052.017.026a.548.548 0 01.024.038l.027.042c.002.004.005.006.005.01a.27.27 0 01.023.035c.002.001.003.005.004.006l.005.01a.794.794 0 01.04.07l1.224 2.156c.233.409.34.852.338 1.29z" fill="url(#paint5_linear_32_29332)"/><path d="M15.42 12.581l-.002.069-.002.04c-.056.905-.836 1.595-1.741 1.595l-2.73-.02a.859.859 0 01-.726-.411l-.025-.044-.002-.004-.72-1.27-.464-.818-.492-.865-.022-.041 1.983.014-.001.001.022.04.001.001.001.003.955 1.68 1.983.015.98-1.67.024-.04c.59.347.984.99.978 1.725z" fill="url(#paint6_linear_32_29332)"/><path d="M13.202 9.576l-.025.044-.003.002-.74 1.26-.476.811-.503.858-.955-1.68-.001-.003-.001-.001-.023-.04.003-.002.978-1.667v-.002l-.978-1.724L8.54 7.42l-.047-.001a1.979 1.979 0 011.09-1.755l.012-.007.02-.01.069-.03c.79-.337 1.717-.007 2.155.74l.015.024 1.339 2.361a.857.857 0 01.008.835z" fill="url(#paint7_linear_32_29332)"/></g><defs><linearGradient id="paint0_linear_32_29332" x1="14.533" y1="5.94" x2="7.679" y2="16.736" gradientUnits="userSpaceOnUse"><stop offset=".031" stop-color="#D495FF"/><stop offset=".321" stop-color="#A671FF"/><stop offset=".703" stop-color="#778BFF"/></linearGradient><linearGradient id="paint1_linear_32_29332" x1="8.156" y1="11.463" x2="16.449" y2="13.791" gradientUnits="userSpaceOnUse"><stop stop-color="#717EFE"/><stop offset=".986" stop-color="#4F91FF"/></linearGradient><linearGradient id="paint2_linear_32_29332" x1="5.107" y1="14.64" x2="11.009" y2="8.346" gradientUnits="userSpaceOnUse"><stop stop-color="#78CCFF"/><stop offset=".956" stop-color="#508CFD"/></linearGradient><linearGradient id="paint3_linear_32_29332" x1="7.614" y1="9.205" x2="7.686" y2="9.239" gradientUnits="userSpaceOnUse"><stop offset=".022" stop-color="#5553FD"/><stop offset=".591" stop-color="#A9A6FD"/></linearGradient><linearGradient id="paint4_linear_32_29332" x1="6.967" y1="14.371" x2="10.159" y2="7.199" gradientUnits="userSpaceOnUse"><stop offset=".004" stop-color="#fff"/><stop offset=".17" stop-color="#E7EDFF"/><stop offset=".518" stop-color="#A9C1FE"/><stop offset=".719" stop-color="#82A5FE"/></linearGradient><linearGradient id="paint5_linear_32_29332" x1="9.259" y1="3.553" x2="12.928" y2="12.919" gradientUnits="userSpaceOnUse"><stop offset=".017" stop-color="#D69BFD"/><stop offset=".973" stop-color="#7E5CF7"/></linearGradient><linearGradient id="paint6_linear_32_29332" x1="9.41" y1="11.163" x2="16.445" y2="14.24" gradientUnits="userSpaceOnUse"><stop stop-color="#98A9F4"/><stop offset=".777" stop-color="#fff"/></linearGradient><linearGradient id="paint7_linear_32_29332" x1="11.226" y1="12.616" x2="10.698" y2="5.582" gradientUnits="userSpaceOnUse"><stop offset=".074" stop-color="#A187FE"/><stop offset="1" stop-color="#fff"/></linearGradient><clipPath id="clip0_32_29332"><path fill="#fff" transform="translate(4 4)" d="M0 0h12.871v12H0z"/></clipPath></defs></svg>