<svg width="24" height="24" fill="none" xmlns="http://www.w3.org/2000/svg"><g clip-path="url(#clip0_67_2221)"><path d="M8.76.68h0A.25.25 0 019 .5h6c.04 0 .079.01.114.028l.228-.445-.228.445a.25.25 0 01.123.3V.83l-2.67 8.013-.22.658h6.404a.25.25 0 01.197.403h0l-10.5 13.5v.001a.25.25 0 01-.437-.227h0l2.702-8.78.199-.647H5.25h0a.25.25 0 01-.2-.1l-.4.3.4-.3a.25.25 0 01-.04-.22L8.76.68z" stroke="#fff"/></g><defs><clipPath id="clip0_67_2221"><path fill="#fff" d="M0 0h24v24H0z"/></clipPath></defs></svg>