<svg width="48" height="48" fill="none" xmlns="http://www.w3.org/2000/svg"><rect width="48" height="48" rx="8" fill="#487BFF"/><mask id="a" style="mask-type:alpha" maskUnits="userSpaceOnUse" x="0" y="0" width="48" height="48"><rect width="48" height="48" rx="8" fill="#487BFF"/></mask><g mask="url(#a)" fill="#fff"><path opacity=".2" d="M39.062-8.407l-7.785 20.8L48.16-2.037 34.33 15.34l20.514-8.506-18.523 12.252 22.14-1.75-21.404 5.928 21.597 5.177-22.187-.976 18.94 11.598-20.8-7.785 14.43 16.883L31.66 34.33l8.506 20.515-12.252-18.524 1.75 22.14-5.928-21.403-5.177 21.597.976-22.187-11.597 18.94 7.784-20.8L-1.16 49.037 12.671 31.66l-20.516 8.506L10.68 27.915l-22.14 1.75 21.403-5.928-21.597-5.177 22.188.976-18.94-11.598 20.8 7.785L-2.038-1.16 15.34 12.671 6.834-7.844l12.251 18.523-1.75-22.14 5.928 21.404 5.177-21.597-.976 22.187 11.598-18.94z"/><path opacity=".2" d="M45.276 8.164L33.13 19.517l16.323-3.153-15.296 6.514 16.418 2.62-16.601.89 14.53 8.078L32.6 29.625l10.892 12.56-13.29-9.99 5.94 15.529-9.072-13.932.27 16.622-3.759-16.194-5.431 15.713 2.006-16.504L9.679 46.337l7.53-14.822-14.26 8.545 12.144-11.353L-1.23 31.86l15.295-6.514-16.417-2.621 16.601-.89-14.53-8.077 15.904 4.841L4.73 6.039l13.29 9.99L12.08.5l9.072 13.932-.27-16.623 3.759 16.195L30.073-1.71l-2.006 16.503L38.545 1.887l-7.53 14.822 14.26-8.545z"/></g><g clip-path="url(#clip0_32_36490)"><path d="M22.834 26.333v9.334h-4.667a3.5 3.5 0 01-3.5-3.5V27.5a1.166 1.166 0 011.167-1.167h7zm9.333 0a1.167 1.167 0 011.166 1.167v4.667a3.5 3.5 0 01-3.5 3.5h-4.666v-9.334h7zm-2.917-14a4.085 4.085 0 013.69 5.834h.394a2.333 2.333 0 012.333 2.333v1.167A2.333 2.333 0 0133.333 24h-8.166v-5.833h-2.334V24h-8.166a2.333 2.333 0 01-2.333-2.333V20.5a2.333 2.333 0 012.333-2.333h.393a4.067 4.067 0 01-.393-1.75c0-2.255 1.828-4.084 4.063-4.084 2.048-.035 3.864 1.274 5.111 3.423l.16.284c1.204-2.233 2.986-3.633 5.005-3.704l.244-.003zm-10.5 2.334a1.75 1.75 0 000 3.5h3.667c-.865-2.223-2.274-3.524-3.667-3.5zm10.48 0c-1.376-.024-2.782 1.278-3.647 3.5h3.667a1.75 1.75 0 10-.02-3.5z" fill="#fff"/></g><defs><clipPath id="clip0_32_36490"><path fill="#fff" transform="translate(10 10)" d="M0 0h28v28H0z"/></clipPath></defs></svg>