<svg width="24" height="17" fill="none" xmlns="http://www.w3.org/2000/svg"><g clip-path="url(#clip0_32_30537)"><path d="M21.23 11.946v-.012c0-.016 0-.036-.003-.054l-.001-.044c-.004-.02-.004-.041-.005-.057l-.005-.08c-.005-.025-.006-.053-.009-.077l-.01-.083c-.005-.05-.014-.102-.02-.152a4.31 4.31 0 00-.04-.216c-.011-.062-.027-.124-.041-.185a.931.931 0 00-.023-.092 2.616 2.616 0 00-.053-.184 3.517 3.517 0 00-.068-.205l-.024-.067-.024-.066-.02-.047c-.008-.02-.014-.04-.023-.06-.013-.03-.028-.06-.039-.092-.003-.001-.003-.003-.003-.005-.014-.027-.025-.054-.037-.08-.003-.003-.003-.008-.005-.01v-.003c-.01-.022-.023-.044-.034-.067 0-.003-.003-.006-.005-.01-.003-.01-.008-.017-.01-.024l-.034-.064a7.612 7.612 0 00-.086-.16c-.003-.004-.004-.01-.01-.016l-.043-.08a.035.035 0 00-.006-.01c-.42-.703-1.165-1.516-1.968-1.782l-.008.02a3.626 3.626 0 00-.433-2.365L16.405 2.46a2.263 2.263 0 00-.063-.112c-.004-.001-.005-.006-.007-.01-.01-.018-.021-.034-.032-.05 0-.006-.005-.01-.007-.014-.013-.02-.024-.039-.039-.06l-.033-.054c-.01-.01-.018-.024-.026-.036-.018-.024-.033-.05-.051-.074l-.028-.04a.38.38 0 01-.03-.04c-.003-.002-.004-.007-.008-.01a1.591 1.591 0 00-.03-.04c-.014-.02-.032-.042-.046-.063l-.076-.092c-.028-.033-.056-.07-.085-.1a3.808 3.808 0 00-.27-.284c0-.002 0-.002-.003-.004a2.777 2.777 0 00-.141-.131c0-.004-.001-.004-.003-.004l-.072-.065-.07-.06-.007-.004a.129.129 0 00-.025-.02c-.031-.023-.06-.05-.092-.074a.515.515 0 01-.05-.038L15.109.98a1.397 1.397 0 00-.127-.092l-.004-.004c-.007-.005-.011-.01-.018-.013l-.005-.005a.173.173 0 01-.019-.011l-.059-.04-.06-.038c-.01-.009-.024-.015-.033-.022h-.002a.713.713 0 00-.062-.039c-.022-.013-.042-.028-.066-.039l-.01-.008-.138-.08a6.452 6.452 0 00-.138-.07l-.072-.036c-.048-.023-.095-.046-.143-.067a2.016 2.016 0 01-.074-.031c-.023-.01-.048-.02-.07-.032a.541.541 0 01-.075-.028c-.021-.006-.041-.014-.06-.021-.009-.005-.02-.007-.027-.012-.022-.006-.041-.014-.062-.021-.053-.018-.105-.037-.16-.053a.419.419 0 00-.065-.02L13.466.17l-.01-.001-.07-.02-.004-.001-.055-.014c-.05-.01-.103-.023-.154-.034-.024-.005-.05-.008-.075-.015-.007 0-.015-.003-.023-.003a1.901 1.901 0 00-.139-.024l-.078-.014-.16-.02a1.387 1.387 0 01-.08-.006 1.563 1.563 0 00-.08-.006l-.075-.005-.01-.001-.041-.001-.1-.004L12.213 0h-.122l-.122.003c-.082.005-.165.01-.248.018a1.141 1.141 0 00-.082.009c-.028.003-.056.005-.084.01a4.677 4.677 0 00-.16.022h-.004A4.092 4.092 0 0011.19.1l-.2.044a.753.753 0 01-.079.023 1.12 1.12 0 00-.079.022l-.067.02c-.031.01-.059.017-.088.027-.022.007-.042.015-.061.02-.015.006-.057.02-.06.023a1.55 1.55 0 00-.096.033 1.53 1.53 0 00-.117.046l-.072.031-.072.032-.074.032-.057.028-.027.015a.263.263 0 00-.057.026 6.15 6.15 0 01-.097.051l-.11.061s-.059.032-.107.062c-.03.018-.06.034-.088.054l-.01.006-.045.031c-.014.007-.025.015-.037.023l-.05.033c-.021.013-.042.03-.065.046-.022.013-.043.03-.062.044a.617.617 0 00-.067.05c-.041.031-.082.062-.122.095a3.549 3.549 0 00-.167.14c-.05.042-.094.084-.14.127a4.927 4.927 0 00-.202.205c-.016.016-.032.036-.047.052-.047.054-.097.108-.097.108-.013.018-.03.036-.042.054-.017.017-.032.037-.046.055-.012.015-.022.026-.032.041-.013.017-.028.033-.039.05l-.06.08-.002.005a1.537 1.537 0 00-.052.07l-.007.011-.042.063c-.004.003-.005.008-.007.01a.137.137 0 00-.016.022l-.043.066a3.405 3.405 0 00-.092.15l-.01.013.002.001-.046.079-.009.01c-.4.715-.73 1.767-.56 2.595h.02a3.645 3.645 0 00-1.833 1.554l-1.777 3.03-.056.1-.008.011a.042.042 0 01-.005.01c-.011.018-.018.034-.028.054l-.008.014c-.012.02-.022.042-.033.062-.01.02-.018.039-.028.057a.255.255 0 00-.02.039l-.039.08a.391.391 0 01-.018.044l-.022.046a.203.203 0 01-.004.011l-.02.048c-.011.023-.02.047-.031.074a4.464 4.464 0 00-.148.422c-.019.062-.033.122-.051.185 0 .002 0 .004-.002.005-.017.064-.03.125-.042.187v.006a.898.898 0 00-.02.094l-.017.093-.001.007-.005.031-.017.117c-.005.02-.006.04-.008.06l-.001.007a1.035 1.035 0 00-.009.069c-.001.028-.006.057-.008.085 0 .001 0 .005-.002.006v.023l-.001.007a.05.05 0 01-.003.02c0 .023-.004.046-.004.07-.001.024-.003.047-.003.071l-.004.042V12l-.002.075-.001.017.001.156.007.155.004.08.015.158c.004.027.006.053.008.08l.012.078.01.078.01.06.005.032.014.064c.008.055.02.11.033.164l.014.066.025.095.001.01c.006.022.011.047.02.07v.006l.016.051.046.15c.009.024.016.048.027.073.001.008.005.014.006.021.015.046.032.089.051.133l.028.074c.02.05.04.1.062.148.01.027.022.05.033.074a.86.86 0 00.034.074l.033.067a.03.03 0 01.005.008l.017.033.001.004c.015.031.031.059.047.088l.047.085.001.004c.022.034.041.07.062.103l.062.104c.046.07.092.14.141.206l.048.07.049.065.1.127s0 .002.003.002c.042.054.087.107.132.156.044.052.093.101.14.15l.057.058.06.057a.592.592 0 00.052.05c.02.021.043.04.066.062l.048.042.038.033c0 .001.001.003.004.001.001.004.004.005.006.006a.7.7 0 00.08.066.016.016 0 00.011.01l.084.069c.022.017.043.031.062.047.022.015.043.032.064.048.022.015.043.031.065.044l.052.038a.192.192 0 00.026.016l.053.035c.031.02.06.04.092.059l.108.066a2.848 2.848 0 00.197.11l.01.004a.694.694 0 00.05.024c.01.009.024.014.038.02l.053.027a.55.55 0 00.07.032l.072.035.076.03a3.44 3.44 0 00.348.133c.06.023.121.04.18.058l.094.027c.06.017.123.031.186.046l.069.015.14.029.07.011a.86.86 0 00.07.011l.051.007.065.01c.031.003.065.008.098.01a2.548 2.548 0 01.194.017l.027.001c.024.001.047.003.071.003.002.002.004.002.007.002.06.001.116.005.174.005h.122c.816-.011 1.894-.25 2.528-.813l-.011-.016c.138.111.287.213.44.307a3.637 3.637 0 001.82.5l3.513.027h.141c.02 0 .04-.004.06-.004.005 0 .01 0 .014.002.025-.004.048-.004.072-.004l.062-.005a.324.324 0 00.046-.003c.03-.004.06-.004.089-.007l.047-.005c.017 0 .035-.003.051-.004.004-.002.007-.002.012-.002.018-.001.032-.005.05-.005a.89.89 0 01.08-.01c.038-.007.076-.012.115-.02l.132-.023c.064-.014.13-.027.192-.043.064-.013.123-.031.186-.047l.006-.002c.06-.017.123-.036.184-.056l.003-.001c.032-.01.062-.02.094-.032l.087-.032c.003 0 .005 0 .008-.002.009-.001.018-.006.027-.01l.111-.043a.502.502 0 01.058-.023l.005-.004a.65.65 0 00.064-.028l.079-.034.006-.001a.095.095 0 01.02-.012c.003 0 .004-.001.006-.003a.07.07 0 00.018-.009c.023-.01.043-.021.066-.03a.61.61 0 01.062-.032c.013-.005.024-.014.036-.02h.001l.066-.036.066-.034c.005-.005.01-.005.013-.009l.137-.08.13-.082.067-.046c.043-.03.088-.06.128-.09l.064-.048c.022-.017.043-.031.062-.047a.615.615 0 00.062-.05.575.575 0 00.048-.041.108.108 0 00.024-.018l.051-.043c.041-.036.083-.072.123-.11a.46.46 0 00.051-.048c.023-.021.046-.046.07-.067l.007-.008.052-.05.004-.006c.01-.013.024-.024.036-.037a5.579 5.579 0 00.16-.173l.014-.02c.031-.034.06-.07.09-.108l.05-.062a3.147 3.147 0 00.188-.26c.016-.02.03-.04.042-.06l.028-.043c.02-.03.037-.058.053-.085.02-.029.034-.056.05-.084l.002-.004c.022-.034.041-.069.06-.103l.058-.107c.038-.074.074-.15.11-.225l.041-.095.025-.055.06-.153.002-.004c.023-.064.047-.128.067-.193a3.811 3.811 0 00.102-.353.512.512 0 00.018-.07l.02-.09c.004-.021.01-.042.013-.061.003-.017.005-.033.01-.05l-.002-.005c.004-.001.004-.005.004-.01.006-.033.01-.065.018-.102l.001-.014.017-.107c.003-.024.008-.051.01-.079.005-.027.006-.05.01-.079.003-.026.004-.05.008-.077 0-.021.003-.042.003-.064l.004-.031.005-.062c0-.038.003-.072.003-.11.002-.042.004-.084.004-.126v-.126c.004-.028.002-.06.002-.093z" fill="url(#paint0_linear_32_30537)"/><path d="M21.234 12.046v.126c0 .042-.001.083-.003.125 0 .037-.002.073-.004.11a.666.666 0 01-.004.063c-.002.01-.002.02-.002.03l-.005.065-.009.078a1.006 1.006 0 01-.009.078 1.43 1.43 0 01-.026.186c.001.006-.002.01-.002.015a2.336 2.336 0 01-.019.102c0 .004 0 .009-.002.01.002.001.002.003.002.004-.005.016-.007.034-.01.05-.004.02-.01.04-.013.063l-.02.089a.774.774 0 01-.017.07 1.537 1.537 0 01-.02.08l-.022.077a5.76 5.76 0 01-.127.388l-.002.004-.06.152-.025.056-.042.095c-.035.075-.072.15-.11.225l-.058.106c-.02.035-.039.07-.06.104l-.001.003c-.016.027-.032.056-.051.083l-.053.085-.028.043a.826.826 0 01-.042.062l-.046.067c-.016.02-.03.042-.047.064a3.52 3.52 0 01-.096.129c-.018.02-.034.042-.05.061-.029.039-.06.074-.09.11l-.015.019a1.997 1.997 0 00-.05.056l-.109.117-.037.038-.002.005c-.019.016-.035.035-.052.051l-.007.008-.07.067a.58.58 0 01-.052.048c-.04.038-.082.074-.124.11a.694.694 0 01-.05.043c-.006.007-.015.012-.024.019-.015.014-.031.026-.049.04-.02.016-.04.034-.061.049l-.063.049-.063.047-.129.09-.068.046a4.014 4.014 0 01-.13.082c-.045.026-.09.054-.137.08l-.012.008a2.873 2.873 0 01-.067.035l-.065.036h-.002l-.035.02a.667.667 0 00-.064.031l-.065.031-.019.009-.005.003a.077.077 0 00-.021.01l-.006.002a2.229 2.229 0 01-.142.064l-.005.002-.058.023-.11.044c-.01.003-.02.008-.029.01a.015.015 0 01-.008.002c-.029.01-.058.023-.087.032l-.093.032-.003.001c-.062.02-.123.04-.184.056-.002.002-.005.002-.006.002-.063.016-.123.034-.185.048-.063.016-.128.028-.193.042a2.48 2.48 0 01-.132.024l-.116.019c-.026.005-.053.007-.079.012l-.05.005-.011.002-.051.005a1.05 1.05 0 01-.05.005c-.028.003-.057.004-.087.006-.015.002-.03.004-.045.004l-.063.005a.854.854 0 00-.073.003L16.534 17l-.06.002h-.024l-.117.001-3.513-.026a3.63 3.63 0 01-2.263-.807 3.659 3.659 0 01-.843-.97l-.003-.002-.077-.14-.008-.012-.266-.469-.032-.056-1.353-2.387-.034-.056v-.002l1.424-2.422.032.06.696 1.225.657 1.16 1.021 1.798.002.005.036.062c.212.348.594.58 1.03.582l3.865.029c1.282 0 2.388-.976 2.467-2.258l.004-.058.002-.098A2.801 2.801 0 0017.79 9.72l.001-.002.271-.463.01-.016.08-.136V9.1c.21-.378.352-.79.418-1.215l.009-.02c.803.267 1.548 1.08 1.968 1.782l.007.012.044.08c.005.005.006.011.009.015.028.051.056.102.082.153l.004.007a.764.764 0 01.032.064l.012.024c.001.003.005.007.005.01l.032.067.002.004.005.009a4.188 4.188 0 01.039.086l.039.093.024.058.02.048c.008.021.015.044.025.067l.023.066.001.002a2.986 2.986 0 01.068.203 3.053 3.053 0 01.076.276c.015.062.03.124.041.186a5.355 5.355 0 01.06.367c.005.027.007.055.01.083a.648.648 0 00.009.077l.005.08c.002.017.002.038.005.058l.002.044c.002.017.002.037.003.054v.012l.003.094z" fill="url(#paint1_linear_32_30537)"/><path d="M13.563 7.305v.002l-1.409-.012-1.334-.01-2.07-.016h-.075a.675.675 0 00-.064.004.312.312 0 00-.044.005l-.021.003a1.237 1.237 0 00-.235.053l-.046.018c-.003.001-.008.002-.012.005a.96.96 0 00-.182.091l-.001.001a1.16 1.16 0 00-.24.193 1.222 1.222 0 00-.173.229L5.71 11.187c-.628 1.068-.386 2.454.585 3.193.04.032.083.06.127.09a2.807 2.807 0 002.941.103l.265.47c.004.003.005.008.009.012l.077.139.002.002c.222.372.508.699.844.97l.012.016c-.632.563-1.71.801-2.527.813H7.94l-.018-.001c-.058 0-.115-.002-.174-.005-.002 0-.005 0-.006-.002l-.072-.003-.026-.002c-.004 0-.008 0-.013-.002a2.268 2.268 0 00-.18-.015c-.034-.003-.067-.008-.1-.012a.617.617 0 01-.064-.009c-.017-.001-.033-.005-.05-.007a.808.808 0 01-.071-.012l-.069-.012h-.001l-.14-.028-.07-.016a3.398 3.398 0 01-.185-.046l-.093-.026-.18-.057a3.875 3.875 0 01-.35-.132c-.024-.01-.05-.023-.075-.032l-.072-.034a.846.846 0 01-.07-.033l-.054-.026c-.013-.007-.026-.011-.039-.02a.599.599 0 00-.048-.024l-.01-.005a3.605 3.605 0 01-.089-.048l-.109-.062-.107-.065-.093-.06-.052-.035a.117.117 0 01-.026-.017l-.053-.037a2.518 2.518 0 01-.127-.093l-.062-.047a1.42 1.42 0 01-.085-.069 1.217 1.217 0 01-.091-.075l-.007-.007c-.002.001-.002 0-.004-.002a.807.807 0 01-.037-.032.985.985 0 01-.05-.043c-.022-.02-.045-.04-.066-.061-.019-.018-.035-.032-.052-.05-.02-.019-.04-.037-.058-.056l-.058-.058a2.862 2.862 0 01-.14-.151 3.317 3.317 0 01-.133-.156c-.002 0-.002-.002-.003-.003a19.771 19.771 0 01-.149-.193 4.305 4.305 0 01-.19-.276 2.004 2.004 0 01-.062-.103c-.022-.033-.042-.068-.063-.104l-.001-.002-.046-.086a2.597 2.597 0 01-.048-.088l-.002-.005a.462.462 0 00-.02-.04c-.013-.022-.023-.044-.034-.067a1.647 1.647 0 01-.034-.073 2.528 2.528 0 01-.095-.222c-.01-.025-.02-.05-.028-.074a1.515 1.515 0 01-.05-.132l-.007-.023-.026-.071-.046-.152c-.005-.017-.01-.035-.016-.05l-.001-.006-.019-.07-.002-.01-.025-.097-.015-.065a2.98 2.98 0 01-.033-.165.638.638 0 01-.012-.063c-.002-.01-.005-.021-.006-.032a5.917 5.917 0 01-.01-.061l-.01-.078a.728.728 0 01-.013-.077l-.008-.079c-.006-.052-.01-.105-.015-.158l-.005-.08-.007-.155c-.002-.053-.002-.104-.002-.158.002-.005.002-.01.002-.016V12l.002-.074v-.001c.002-.013.002-.027.002-.04l.004-.071.005-.072a.083.083 0 00.002-.02l.001-.006.002-.023.001-.008.008-.085.009-.069.001-.005a.92.92 0 01.009-.062l.017-.117.005-.031.001-.007.016-.093.02-.094.001-.005a3.98 3.98 0 01.043-.188l.001-.006c.018-.061.032-.123.051-.184l.06-.188.047-.123c.014-.036.027-.074.042-.11l.03-.073c.007-.016.014-.031.02-.048.002-.002.003-.007.004-.01.007-.015.014-.031.023-.046a141.608 141.608 0 00.057-.125c.007-.014.012-.027.02-.04.01-.018.018-.038.029-.056.012-.02.02-.042.032-.063l.008-.013a.637.637 0 01.028-.053l.006-.01.007-.012.056-.1L5.558 6.64a3.633 3.633 0 011.833-1.555c.402-.156.83-.24 1.262-.246h.002l.16.001h.015l.538.004.067.001 2.743.02 1.385 2.439z" fill="url(#paint2_linear_32_30537)"/><path d="M13.563 7.307l-1.386 2.361-.002.002-2.81-.02-1.422 2.421v.002l.033.056 1.353 2.387.033.056a2.806 2.806 0 01-3.068-.192c-.972-.74-1.214-2.126-.586-3.194L7.656 7.87a1.2 1.2 0 01.412-.421s.002 0 .002-.002a.911.911 0 01.182-.091l.012-.005.046-.017a1.13 1.13 0 01.234-.053c.021-.004.043-.006.065-.009a.672.672 0 01.065-.003h.075l2.07.015 1.334.01 1.41.013z" fill="url(#paint4_linear_32_30537)"/><path d="M18.617 7.343a3.64 3.64 0 01-.463 1.752c0 .002-.002.002 0 .002l-.081.137c-.002.006-.007.01-.01.016l-.27.463-.001.001-.034.057-1.388 2.365-2.81-.02.714-1.216.675-1.15 1.047-1.784.004-.003.035-.063a1.213 1.213 0 00-.011-1.183l-1.897-3.344c-.007-.012-.012-.022-.02-.033-.621-1.058-1.935-1.526-3.054-1.05a3.092 3.092 0 00-.097.043l-.029.014-.017.01c-.04.019-.08.041-.12.063a2.796 2.796 0 00-.964.904 2.833 2.833 0 00-.46 1.519l-.538-.004h-.016l-.158-.001h-.002a3.64 3.64 0 00-1.262.246l-.02.001c-.17-.829.161-1.881.559-2.595l.006-.01.047-.08H7.98l.01-.014c.03-.05.06-.1.092-.15l.042-.064a.31.31 0 01.016-.023c.002-.003.003-.008.007-.012l.043-.062.007-.01a.858.858 0 01.052-.071l.002-.005.06-.081.04-.05.03-.04.046-.055c.014-.018.03-.035.044-.054 0 0 .049-.053.096-.108a3.196 3.196 0 01.18-.19l.07-.066a5.353 5.353 0 01.307-.269l.12-.095c.022-.016.045-.034.068-.049l.063-.045C9.398.87 9.418.854 9.44.84l.05-.032c.012-.009.022-.017.035-.023.016-.011.032-.021.046-.032a.076.076 0 00.01-.005l.085-.053c.05-.031.109-.063.109-.063.035-.02.072-.042.11-.061L9.982.52a.518.518 0 01.057-.027l.026-.014.058-.027c.024-.012.049-.023.073-.033l.072-.032a.659.659 0 00.073-.03 2.663 2.663 0 01.213-.08c.002-.001.044-.015.06-.022a.469.469 0 00.06-.02c.029-.01.058-.018.088-.027l.069-.02.079-.022.079-.022.198-.046c.067-.014.134-.025.202-.037a4.435 4.435 0 01.165-.024l.083-.01c.028-.003.054-.006.082-.007.083-.009.167-.013.25-.018l.12-.003c.041 0 .08-.002.122 0 0-.002.001-.002.002-.002L12.31 0l.1.004.042.002c.002-.002.006 0 .01.001.024.002.049.002.075.005l.08.007.08.007.159.02.078.012c.046.007.093.014.14.025.008 0 .015.002.022.003L13.17.1l.155.035.053.013.005.001.07.02.01.001.093.028a3.006 3.006 0 01.286.096c.009.003.02.005.028.01l.06.023c.024.01.048.02.074.028.024.011.049.02.072.031l.073.031c.047.021.095.044.142.067.025.012.05.023.074.036l.137.07c.046.026.091.051.138.08l.011.008c.024.012.044.026.067.039l.063.039h.001l.035.022.06.039.058.04c.008.004.011.008.018.012l.006.005.017.012.006.004.072.05.054.041.005.004.049.038.092.074a.127.127 0 01.025.02l.005.003c.025.02.05.04.072.06l.072.065a3.654 3.654 0 01.145.134l.003.005a4.61 4.61 0 01.268.283c.029.032.057.067.086.1l.074.093c.015.021.034.042.049.063l.03.04a.781.781 0 00.037.05l.028.04.05.074c.01.012.017.024.026.037a.843.843 0 01.034.053l.039.06.007.012a.38.38 0 01.032.051l.005.01.007.012c.02.032.04.066.058.1l1.733 3.054c.33.58.483 1.208.478 1.827z" fill="url(#paint5_linear_32_30537)"/><path d="M19.178 12.157l-.002.097-.003.058c-.079 1.281-1.185 2.258-2.467 2.258l-3.866-.028a1.217 1.217 0 01-1.03-.582l-.035-.063c-.002 0-.002-.002-.002-.005l-1.021-1.798-.658-1.16-.696-1.225-.032-.06 2.81.021-.002.002.032.056.002.002.001.003 1.353 2.382 2.81.02 1.387-2.365.034-.056a2.803 2.803 0 011.385 2.443z" fill="url(#paint6_linear_32_30537)"/><path d="M16.036 7.899l-.035.063-.004.003L14.95 9.75l-.675 1.15-.714 1.216-1.352-2.382-.002-.003-.001-.002-.032-.056.003-.004 1.386-2.36v-.003l-1.386-2.442-2.743-.02-.067-.001a2.833 2.833 0 01.46-1.518 2.803 2.803 0 011.084-.968l.018-.01.028-.013c.032-.016.065-.03.097-.044 1.12-.476 2.433-.009 3.054 1.05l.02.034 1.897 3.344c.217.379.205.825.011 1.182z" fill="url(#paint7_linear_32_30537)"/></g><defs><linearGradient id="paint0_linear_32_30537" x1="17.923" y1="2.749" x2="8.212" y2="18.043" gradientUnits="userSpaceOnUse"><stop offset=".031" stop-color="#D495FF"/><stop offset=".321" stop-color="#A671FF"/><stop offset=".703" stop-color="#778BFF"/></linearGradient><linearGradient id="paint1_linear_32_30537" x1="8.888" y1="10.572" x2="20.637" y2="13.87" gradientUnits="userSpaceOnUse"><stop stop-color="#717EFE"/><stop offset=".986" stop-color="#4F91FF"/></linearGradient><linearGradient id="paint2_linear_32_30537" x1="4.569" y1="15.073" x2="12.929" y2="6.156" gradientUnits="userSpaceOnUse"><stop stop-color="#78CCFF"/><stop offset=".956" stop-color="#508CFD"/></linearGradient><linearGradient id="paint3_linear_32_30537" x1="8.121" y1="7.373" x2="8.222" y2="7.421" gradientUnits="userSpaceOnUse"><stop offset=".022" stop-color="#5553FD"/><stop offset=".591" stop-color="#A9A6FD"/></linearGradient><linearGradient id="paint4_linear_32_30537" x1="7.204" y1="14.693" x2="11.726" y2="4.532" gradientUnits="userSpaceOnUse"><stop offset=".004" stop-color="#fff"/><stop offset=".17" stop-color="#E7EDFF"/><stop offset=".518" stop-color="#A9C1FE"/><stop offset=".719" stop-color="#82A5FE"/></linearGradient><linearGradient id="paint5_linear_32_30537" x1="10.451" y1="-.634" x2="15.648" y2="12.636" gradientUnits="userSpaceOnUse"><stop offset=".017" stop-color="#D69BFD"/><stop offset=".973" stop-color="#7E5CF7"/></linearGradient><linearGradient id="paint6_linear_32_30537" x1="10.665" y1="10.147" x2="20.63" y2="14.506" gradientUnits="userSpaceOnUse"><stop stop-color="#98A9F4"/><stop offset=".777" stop-color="#fff"/></linearGradient><linearGradient id="paint7_linear_32_30537" x1="13.237" y1="12.206" x2="12.489" y2="2.242" gradientUnits="userSpaceOnUse"><stop offset=".074" stop-color="#A187FE"/><stop offset="1" stop-color="#fff"/></linearGradient><clipPath id="clip0_32_30537"><path fill="#fff" d="M0 0h24v17H0z"/></clipPath></defs></svg>