<svg width="44" height="44" fill="none" xmlns="http://www.w3.org/2000/svg"><g clip-path="url(#clip0_32_34072)" stroke="#fff" stroke-width="2" stroke-linecap="round" stroke-linejoin="round"><path d="M5.5 27.5a7.333 7.333 0 1014.666 0 7.333 7.333 0 00-14.666 0zm7.334 0v.018m18.332 3.649a3.667 3.667 0 107.334 0 3.667 3.667 0 00-7.334 0zm-11.916 0h11.917"/><path d="M36.666 27.867v-7.7a1.833 1.833 0 00-1.833-1.834h-11l-3.666-9.166h-11v11.916"/><path d="M33 9.167h-1.833A1.833 1.833 0 0029.333 11v7.333"/></g><defs><clipPath id="clip0_32_34072"><path fill="#fff" d="M0 0h44v44H0z"/></clipPath></defs></svg>